<?xml version="1.0" encoding="iso-8859-1"?>
<!-- Generator: Adobe Illustrator 19.0.0, SVG Export Plug-In . SVG Version: 6.00 Build 0)  -->
<svg version="1.1" id="Capa_1" xmlns="http://www.w3.org/2000/svg" xmlns:xlink="http://www.w3.org/1999/xlink" x="0px" y="0px"
	 viewBox="0 0 384 384" style="enable-background:new 0 0 384 384;" xml:space="preserve">
<g>
	<g>
		<path d="M128.041,0H42.626C19.081,0,0,19.084,0,42.626v85.414c0,23.545,19.084,42.626,42.626,42.626h85.414
			c23.545,0,42.626-19.084,42.626-42.626V42.626C170.667,19.081,151.582,0,128.041,0z M128,128H42.667V42.667H128V128z"/>
	</g>
</g>
<g>
	<g>
		<path d="M341.374,0h-85.414c-23.545,0-42.626,19.084-42.626,42.626v85.414c0,23.545,19.084,42.626,42.626,42.626h85.414
			c23.545,0,42.626-19.084,42.626-42.626V42.626C384,19.081,364.916,0,341.374,0z M341.333,128H256V42.667h85.333V128z"/>
	</g>
</g>
<g>
	<g>
		<path d="M128.041,213.333H42.626C19.081,213.333,0,232.418,0,255.959v85.414C0,364.919,19.084,384,42.626,384h85.414
			c23.545,0,42.626-19.084,42.626-42.626v-85.414C170.667,232.414,151.582,213.333,128.041,213.333z M128,341.333H42.667V256H128
			V341.333z"/>
	</g>
</g>
<g>
	<g>
		<path d="M341.374,213.333h-85.414c-23.545,0-42.626,19.084-42.626,42.626v85.414c0,23.545,19.084,42.626,42.626,42.626h85.414
			C364.919,384,384,364.916,384,341.374v-85.414C384,232.414,364.916,213.333,341.374,213.333z M341.333,341.333H256V256h85.333
			V341.333z"/>
	</g>
</g>
<g>
</g>
<g>
</g>
<g>
</g>
<g>
</g>
<g>
</g>
<g>
</g>
<g>
</g>
<g>
</g>
<g>
</g>
<g>
</g>
<g>
</g>
<g>
</g>
<g>
</g>
<g>
</g>
<g>
</g>
</svg>
