<?xml version="1.0" encoding="iso-8859-1"?>
<!-- Generator: Adobe Illustrator 19.0.0, SVG Export Plug-In . SVG Version: 6.00 Build 0)  -->
<svg version="1.1" id="Capa_1" xmlns="http://www.w3.org/2000/svg" xmlns:xlink="http://www.w3.org/1999/xlink" x="0px" y="0px"
	 viewBox="0 0 341.759 341.759" style="enable-background:new 0 0 341.759 341.759;" xml:space="preserve">
<g>
	<g>
		<path d="M203.751,150.038L48.477,16.089C21.648-7.056,0,2.946,0,38.322v265.113c0,35.456,21.704,45.332,48.477,22.24
			l155.274-133.928C217.087,180.244,217.103,161.557,203.751,150.038z M42.667,274.341V67.425l119.938,103.466L42.667,274.341z"/>
	</g>
</g>
<g>
	<g>
		<path d="M331.751,150.038L176.477,16.089c-24.893-21.474-45.326-14.413-48.145,14.975l95.914,82.904l65.986,56.823
			l-106.408,91.632l-55.501,48.172c2.784,29.532,23.282,36.534,48.155,15.08l155.274-133.928
			C345.087,180.244,345.103,161.557,331.751,150.038z"/>
	</g>
</g>
<g>
</g>
<g>
</g>
<g>
</g>
<g>
</g>
<g>
</g>
<g>
</g>
<g>
</g>
<g>
</g>
<g>
</g>
<g>
</g>
<g>
</g>
<g>
</g>
<g>
</g>
<g>
</g>
<g>
</g>
</svg>
