<?xml version="1.0" encoding="iso-8859-1"?>
<!-- Generator: Adobe Illustrator 19.0.0, SVG Export Plug-In . SVG Version: 6.00 Build 0)  -->
<svg version="1.1" id="Capa_1" xmlns="http://www.w3.org/2000/svg" xmlns:xlink="http://www.w3.org/1999/xlink" x="0px" y="0px"
	 viewBox="0 0 426.995 426.995" style="enable-background:new 0 0 426.995 426.995;" xml:space="preserve">
<g>
	<g>
		<path d="M64.064,149.662h127.477v-42.667H64.064C28.697,106.995,0,135.599,0,170.923v85.35c0,35.305,28.744,63.928,64.064,63.928
			h127.477v-42.667H64.064c-11.797,0-21.398-9.561-21.398-21.261v-85.35C42.667,159.194,52.23,149.662,64.064,149.662z"/>
	</g>
</g>
<g>
	<g>
		<path d="M362.93,106.793H235.453v42.667H362.93c11.834,0,21.398,9.532,21.398,21.261v85.35c0,11.7-9.601,21.261-21.398,21.261
			H235.453v42.667H362.93c35.321,0,64.064-28.623,64.064-63.928v-85.35C426.995,135.397,398.298,106.793,362.93,106.793z"/>
	</g>
</g>
<g>
	<g>
		<rect x="128.291" y="192.154" width="170.667" height="42.667"/>
	</g>
</g>
<g>
</g>
<g>
</g>
<g>
</g>
<g>
</g>
<g>
</g>
<g>
</g>
<g>
</g>
<g>
</g>
<g>
</g>
<g>
</g>
<g>
</g>
<g>
</g>
<g>
</g>
<g>
</g>
<g>
</g>
</svg>
