<?xml version="1.0" encoding="iso-8859-1"?>
<!-- Generator: Adobe Illustrator 19.0.0, SVG Export Plug-In . SVG Version: 6.00 Build 0)  -->
<svg version="1.1" id="Capa_1" xmlns="http://www.w3.org/2000/svg" xmlns:xlink="http://www.w3.org/1999/xlink" x="0px" y="0px"
	 viewBox="0 0 384 384" style="enable-background:new 0 0 384 384;" xml:space="preserve">
<g>
	<g>
		<path d="M298.667,213.333v128h-256v-256h128V42.667h-128C19.103,42.667,0,61.769,0,85.333v256C0,364.898,19.103,384,42.667,384
			h256c23.564,0,42.667-19.102,42.667-42.667v-128H298.667z"/>
	</g>
</g>
<g>
	<g>
		<path d="M298.667,0c-47.128,0-85.333,38.205-85.333,85.333s38.205,85.333,85.333,85.333S384,132.462,384,85.333
			S345.795,0,298.667,0z M298.667,128C275.103,128,256,108.898,256,85.333s19.102-42.667,42.667-42.667
			c23.564,0,42.667,19.103,42.667,42.667S322.231,128,298.667,128z"/>
	</g>
</g>
<g>
</g>
<g>
</g>
<g>
</g>
<g>
</g>
<g>
</g>
<g>
</g>
<g>
</g>
<g>
</g>
<g>
</g>
<g>
</g>
<g>
</g>
<g>
</g>
<g>
</g>
<g>
</g>
<g>
</g>
</svg>
