<?xml version="1.0" encoding="iso-8859-1"?>
<!-- Generator: Adobe Illustrator 19.0.0, SVG Export Plug-In . SVG Version: 6.00 Build 0)  -->
<svg version="1.1" id="Capa_1" xmlns="http://www.w3.org/2000/svg" xmlns:xlink="http://www.w3.org/1999/xlink" x="0px" y="0px"
	 viewBox="0 0 513.34 513.34" style="enable-background:new 0 0 513.34 513.34;" xml:space="preserve">
<g>
	<g>
		<path d="M494.903,427.52l-84.48-56.32c33.28-38.4,51.2-87.04,51.2-140.8c0-128-102.4-230.4-230.4-230.4S0.823,102.4,0.823,230.4
			s102.4,230.4,230.4,230.4c53.76,0,102.4-17.92,140.8-48.64l56.32,84.48c17.92,20.48,48.64,23.04,69.12,2.56
			C517.943,478.72,517.943,445.44,494.903,427.52z M231.223,409.6c-99.84,0-179.2-79.36-179.2-179.2s79.36-179.2,179.2-179.2
			s179.2,79.36,179.2,179.2S331.063,409.6,231.223,409.6z"/>
	</g>
</g>
<g>
	<g>
		<path d="M359.223,256v-51.2h-28.16c-2.56-10.24-5.12-17.92-10.24-25.6l20.48-20.48l-35.84-35.84l-23.04,20.48
			c-7.68-5.12-17.92-7.68-25.6-10.24V102.4h-51.2v28.16c-10.24,2.56-17.92,7.68-25.6,12.8l-20.48-20.48l-35.84,35.84l20.48,20.48
			c-5.12,7.68-10.24,15.36-12.8,25.6h-28.16V256h28.16c2.56,10.24,5.12,17.92,10.24,25.6l-20.48,20.48l35.84,35.84l23.04-20.48
			c7.68,5.12,17.92,7.68,25.6,10.24v30.72h51.2v-28.16c10.24-2.56,17.92-5.12,25.6-10.24l20.48,20.48l35.84-35.84l-20.48-23.04
			c5.12-7.68,7.68-15.36,10.24-25.6H359.223z M231.223,281.6c-28.16,0-51.2-23.04-51.2-51.2c0-28.16,23.04-51.2,51.2-51.2
			c28.16,0,51.2,23.04,51.2,51.2C282.423,258.56,259.383,281.6,231.223,281.6z"/>
	</g>
</g>
<g>
</g>
<g>
</g>
<g>
</g>
<g>
</g>
<g>
</g>
<g>
</g>
<g>
</g>
<g>
</g>
<g>
</g>
<g>
</g>
<g>
</g>
<g>
</g>
<g>
</g>
<g>
</g>
<g>
</g>
</svg>
