<?xml version="1.0" encoding="iso-8859-1"?>
<!-- Generator: Adobe Illustrator 19.0.0, SVG Export Plug-In . SVG Version: 6.00 Build 0)  -->
<svg version="1.1" id="Capa_1" xmlns="http://www.w3.org/2000/svg" xmlns:xlink="http://www.w3.org/1999/xlink" x="0px" y="0px"
	 viewBox="0 0 470.135 470.135" style="enable-background:new 0 0 470.135 470.135;" xml:space="preserve">
<g>
	<g>
		<rect x="43.068" width="42.667" height="107.068"/>
	</g>
</g>
<g>
	<g>
		<rect x="43.068" y="256.401" width="42.667" height="213.333"/>
	</g>
</g>
<g>
	<g>
		<rect x="213.734" y="0.401" width="42.667" height="234.867"/>
	</g>
</g>
<g>
	<g>
		<rect x="213.734" y="384.802" width="42.667" height="85.333"/>
	</g>
</g>
<g>
	<g>
		<rect x="384.401" y="0.401" width="42.667" height="149.333"/>
	</g>
</g>
<g>
	<g>
		<rect x="384.401" y="299.469" width="42.667" height="170.667"/>
	</g>
</g>
<g>
	<g>
		<path d="M405.734,128.401c-35.346,0-64,28.654-64,64c0,35.346,28.654,64,64,64s64-28.654,64-64
			C469.734,157.055,441.081,128.401,405.734,128.401z M405.734,213.734c-11.782,0-21.333-9.551-21.333-21.333
			c0-11.782,9.551-21.333,21.333-21.333s21.333,9.551,21.333,21.333C427.068,204.183,417.516,213.734,405.734,213.734z"/>
	</g>
</g>
<g>
	<g>
		<path d="M235.068,213.734c-35.346,0-64,28.654-64,64c0,35.346,28.654,64,64,64s64-28.654,64-64
			C299.068,242.388,270.414,213.734,235.068,213.734z M235.068,299.068c-11.782,0-21.333-9.551-21.333-21.333
			c0-11.782,9.551-21.333,21.333-21.333s21.333,9.551,21.333,21.333C256.401,289.516,246.85,299.068,235.068,299.068z"/>
	</g>
</g>
<g>
	<g>
		<path d="M64.401,85.734c-35.346,0-64,28.654-64,64c0,35.346,28.654,64,64,64c35.346,0,64-28.654,64-64
			C128.401,114.388,99.747,85.734,64.401,85.734z M64.401,171.068c-11.782,0-21.333-9.551-21.333-21.333
			c0-11.782,9.551-21.333,21.333-21.333c11.782,0,21.333,9.551,21.333,21.333C85.734,161.516,76.183,171.068,64.401,171.068z"/>
	</g>
</g>
<g>
</g>
<g>
</g>
<g>
</g>
<g>
</g>
<g>
</g>
<g>
</g>
<g>
</g>
<g>
</g>
<g>
</g>
<g>
</g>
<g>
</g>
<g>
</g>
<g>
</g>
<g>
</g>
<g>
</g>
</svg>
