<?xml version="1.0" encoding="iso-8859-1"?>
<!-- Generator: Adobe Illustrator 19.0.0, SVG Export Plug-In . SVG Version: 6.00 Build 0)  -->
<svg version="1.1" id="Capa_1" xmlns="http://www.w3.org/2000/svg" xmlns:xlink="http://www.w3.org/1999/xlink" x="0px" y="0px"
	 viewBox="0 0 384.222 384.222" style="enable-background:new 0 0 384.222 384.222;" xml:space="preserve">
<g>
	<g>
		<path d="M298.95,0.982L86.466,0.001c-35.321-0.163-64.238,28.343-64.448,63.67l-0.612,103.047
			c-0.245,41.294,22.672,98.745,51.185,128.479c0,0,76.667,89.127,122.3,89.026c45.634-0.101,117.033-88.11,117.033-88.11
			c28.135-30.05,50.45-88.591,50.579-129.84l0.316-101.079C362.929,29.952,334.334,1.146,298.95,0.982z M319.836,166.139
			c-0.097,31.032-18.673,79.039-39.059,100.812l-1.035,1.105l-0.954,1.175c-0.367,0.453-1.239,1.505-2.564,3.067
			c-2.305,2.717-4.967,5.774-7.936,9.081c-8.487,9.456-17.622,18.905-26.94,27.613c-10.697,9.995-20.871,18.275-29.905,24.19
			c-8.88,5.814-15.265,8.371-16.648,8.374c-1.806,0.004-9.887-3.378-20.781-10.667c-8.874-5.937-18.68-13.753-28.964-22.963
			c-9.914-8.879-19.674-18.504-28.781-28.135c-3.186-3.369-6.05-6.484-8.536-9.256c-1.435-1.6-2.386-2.684-2.798-3.163l-1.551-1.708
			c-20.852-21.744-39.494-68.518-39.314-98.693l0.612-103.047c0.07-11.742,9.763-21.312,21.585-21.257l212.484,0.982
			c11.842,0.055,21.436,9.706,21.399,21.412L319.836,166.139z"/>
	</g>
</g>
<g>
</g>
<g>
</g>
<g>
</g>
<g>
</g>
<g>
</g>
<g>
</g>
<g>
</g>
<g>
</g>
<g>
</g>
<g>
</g>
<g>
</g>
<g>
</g>
<g>
</g>
<g>
</g>
<g>
</g>
</svg>
