<?xml version="1.0" encoding="iso-8859-1"?>
<!-- Generator: Adobe Illustrator 19.0.0, SVG Export Plug-In . SVG Version: 6.00 Build 0)  -->
<svg version="1.1" id="Capa_1" xmlns="http://www.w3.org/2000/svg" xmlns:xlink="http://www.w3.org/1999/xlink" x="0px" y="0px"
	 viewBox="0 0 426.667 426.667" style="enable-background:new 0 0 426.667 426.667;" xml:space="preserve">
<g>
	<g>
		<path d="M85.333,213.333H42.667C19.102,213.333,0,232.436,0,256v128c0,23.564,19.102,42.667,42.667,42.667h42.667
			C108.897,426.667,128,407.564,128,384V256C128,232.436,108.897,213.333,85.333,213.333z M85.333,384H42.667V256h42.667V384z"/>
	</g>
</g>
<g>
	<g>
		<path d="M234.667,0H192c-23.564,0-42.667,19.102-42.667,42.667V384c0,23.564,19.103,42.667,42.667,42.667h42.667
			c23.564,0,42.667-19.103,42.667-42.667V42.667C277.333,19.102,258.231,0,234.667,0z M234.667,384H192V42.667h42.667V384z"/>
	</g>
</g>
<g>
	<g>
		<path d="M384,85.333h-42.667c-23.564,0-42.667,19.103-42.667,42.667v256c0,23.564,19.102,42.667,42.667,42.667H384
			c23.564,0,42.667-19.103,42.667-42.667V128C426.667,104.436,407.564,85.333,384,85.333z M384,384h-42.667V128H384V384z"/>
	</g>
</g>
<g>
</g>
<g>
</g>
<g>
</g>
<g>
</g>
<g>
</g>
<g>
</g>
<g>
</g>
<g>
</g>
<g>
</g>
<g>
</g>
<g>
</g>
<g>
</g>
<g>
</g>
<g>
</g>
<g>
</g>
</svg>
