<?xml version="1.0" encoding="iso-8859-1"?>
<!-- Generator: Adobe Illustrator 19.0.0, SVG Export Plug-In . SVG Version: 6.00 Build 0)  -->
<svg version="1.1" id="Capa_1" xmlns="http://www.w3.org/2000/svg" xmlns:xlink="http://www.w3.org/1999/xlink" x="0px" y="0px"
	 viewBox="0 0 469.333 469.333" style="enable-background:new 0 0 469.333 469.333;" xml:space="preserve">
<g>
	<g>
		<path d="M298.667,64c-63.93,0-119.649,35.15-148.887,87.179c-7.078-1.213-14.355-1.846-21.78-1.846c-70.692,0-128,57.308-128,128
			s57.308,128,128,128h170.667c94.257,0,170.667-76.41,170.667-170.667S392.923,64,298.667,64z M298.667,362.667H128
			c-47.128,0-85.333-38.205-85.333-85.333S80.872,192,128,192c4.938,0,9.804,0.415,14.571,1.232l29.662,5.085l14.743-26.236
			c22.534-40.1,64.875-65.414,111.691-65.414c70.693,0,128,57.308,128,128S369.359,362.667,298.667,362.667z"/>
	</g>
</g>
<g>
</g>
<g>
</g>
<g>
</g>
<g>
</g>
<g>
</g>
<g>
</g>
<g>
</g>
<g>
</g>
<g>
</g>
<g>
</g>
<g>
</g>
<g>
</g>
<g>
</g>
<g>
</g>
<g>
</g>
</svg>
