<?xml version="1.0" encoding="iso-8859-1"?>
<!-- Generator: Adobe Illustrator 19.0.0, SVG Export Plug-In . SVG Version: 6.00 Build 0)  -->
<svg version="1.1" id="Capa_1" xmlns="http://www.w3.org/2000/svg" xmlns:xlink="http://www.w3.org/1999/xlink" x="0px" y="0px"
	 viewBox="0 0 384.597 384.597" style="enable-background:new 0 0 384.597 384.597;" xml:space="preserve">
<g>
	<g>
		<path d="M376.768,121.691l-32.395-96.736c-4.779-14.304-19.221-24.747-34.315-24.747H75.36c-15.051,0-29.472,10.357-34.347,24.629
			L8,121.573c-4.565,13.365-8.011,34.197-8,48.384L0.128,330.96c0.021,29.515,23.829,53.429,53.355,53.429h277.781
			c29.461,0,53.333-23.968,53.333-53.44V169.947C384.597,155.899,381.184,134.917,376.768,121.691z M341.92,330.949
			c0,5.952-4.8,10.773-10.667,10.773H53.472c-5.92,0-10.688-4.789-10.688-10.795l-0.128-161.003c0-9.483,2.667-25.653,5.717-34.571
			l31.563-92.48h225.44l30.912,92.363c2.965,8.853,5.632,25.269,5.632,34.709V330.949z"/>
	</g>
</g>
<g>
	<g>
		<rect x="170.603" y="42.459" width="42.667" height="85.333"/>
	</g>
</g>
<g>
	<g>
		<rect x="127.936" y="213.125" width="128" height="42.667"/>
	</g>
</g>
<g>
	<g>
		<rect x="42.603" y="127.792" width="170.667" height="42.667"/>
	</g>
</g>
<g>
	<g>
		<rect x="255.936" y="127.792" width="96" height="42.667"/>
	</g>
</g>
<g>
</g>
<g>
</g>
<g>
</g>
<g>
</g>
<g>
</g>
<g>
</g>
<g>
</g>
<g>
</g>
<g>
</g>
<g>
</g>
<g>
</g>
<g>
</g>
<g>
</g>
<g>
</g>
<g>
</g>
</svg>
