<?xml version="1.0" encoding="iso-8859-1"?>
<!-- Generator: Adobe Illustrator 19.0.0, SVG Export Plug-In . SVG Version: 6.00 Build 0)  -->
<svg version="1.1" id="Capa_1" xmlns="http://www.w3.org/2000/svg" xmlns:xlink="http://www.w3.org/1999/xlink" x="0px" y="0px"
	 viewBox="0 0 426.292 426.292" style="enable-background:new 0 0 426.292 426.292;" xml:space="preserve">
<g>
	<g>
		<path d="M362.314,87.065H182.261l0.197,0.326c0.127,0.18,0.275,0.455,0.528,0.875l-0.528-0.875
			c-0.165-0.234-0.296-0.307-0.58-0.326h-0.958c0.454,0,0.748-0.015,0.958,0h0.382l-14.814-24.523
			c-6.898-11.418-21.08-19.404-34.403-19.404H63.955C28.63,43.138,0,71.746,0,107.074v212.143c0,35.348,28.612,63.936,64.038,63.936
			h298.215c35.386,0,64.038-28.618,64.038-64.036V151.101C426.292,115.719,397.714,87.065,362.314,87.065z M383.625,319.117
			c0,11.843-9.538,21.37-21.372,21.37H64.038c-11.87,0-21.372-9.494-21.372-21.27V107.074c0-11.757,9.52-21.27,21.289-21.27h67.696
			l-0.185-0.306c-0.13-0.18-0.278-0.46-0.541-0.895l0.541,0.895c0.154,0.213,0.281,0.285,0.543,0.306h-0.358l14.814,24.523
			c6.917,11.45,21.085,19.404,34.454,19.404h181.394c11.811,0,21.311,9.526,21.311,21.37V319.117z"/>
	</g>
</g>
<g>
</g>
<g>
</g>
<g>
</g>
<g>
</g>
<g>
</g>
<g>
</g>
<g>
</g>
<g>
</g>
<g>
</g>
<g>
</g>
<g>
</g>
<g>
</g>
<g>
</g>
<g>
</g>
<g>
</g>
</svg>
