<?xml version="1.0" encoding="iso-8859-1"?>
<!-- Generator: Adobe Illustrator 19.0.0, SVG Export Plug-In . SVG Version: 6.00 Build 0)  -->
<svg version="1.1" id="Capa_1" xmlns="http://www.w3.org/2000/svg" xmlns:xlink="http://www.w3.org/1999/xlink" x="0px" y="0px"
	 viewBox="0 0 469.333 469.333" style="enable-background:new 0 0 469.333 469.333;" xml:space="preserve">
<g>
	<g>
		<rect y="405.275" width="469.333" height="42.667"/>
	</g>
</g>
<g>
	<g>
		<path d="M384.035,21.392h-85.414c-23.542,0-42.626,19.083-42.626,42.712v255.909c0,23.589,19.081,42.712,42.626,42.712h85.414
			c23.542,0,42.626-19.083,42.626-42.712V64.104C426.662,40.515,407.581,21.392,384.035,21.392z M383.995,320.013
			c0,0.019-28.456,0.034-85.369,0.045c0.023,0,0.035-85.318,0.036-255.955c0-0.019,28.456-0.034,85.369-0.045
			C384.007,64.059,383.995,149.377,383.995,320.013z"/>
	</g>
</g>
<g>
	<g>
		<path d="M170.702,149.392H85.288c-23.542,0-42.626,19.12-42.626,42.658v128.016c0,23.56,19.081,42.658,42.626,42.658h85.414
			c23.542,0,42.626-19.12,42.626-42.658V192.05C213.328,168.491,194.247,149.392,170.702,149.392z M170.662,320.059H85.328v-128
			h85.333V320.059z"/>
	</g>
</g>
<g>
</g>
<g>
</g>
<g>
</g>
<g>
</g>
<g>
</g>
<g>
</g>
<g>
</g>
<g>
</g>
<g>
</g>
<g>
</g>
<g>
</g>
<g>
</g>
<g>
</g>
<g>
</g>
<g>
</g>
</svg>
