<?xml version="1.0" encoding="iso-8859-1"?>
<!-- Generator: Adobe Illustrator 19.0.0, SVG Export Plug-In . SVG Version: 6.00 Build 0)  -->
<svg version="1.1" id="Capa_1" xmlns="http://www.w3.org/2000/svg" xmlns:xlink="http://www.w3.org/1999/xlink" x="0px" y="0px"
	 viewBox="0 0 509.44 509.44" style="enable-background:new 0 0 509.44 509.44;" xml:space="preserve">
<g>
	<g>
		<path d="M405.76,74.24c-38.4,0-71.68,20.48-87.04,51.2l-115.2-25.6C203.52,43.52,160,0,103.68,0C49.92,0,3.84,46.08,3.84,99.84
			c0,56.32,46.08,99.84,99.84,99.84c38.4,0,71.68-20.48,87.04-51.2l115.2,25.6c0,35.84,17.92,66.56,46.08,81.92l-20.48,66.56
			c-35.84,0-66.56,25.6-71.68,61.44l-110.08,17.92c-12.8-23.04-38.4-40.96-66.56-40.96c-40.96,0-74.24,33.28-74.24,74.24
			s33.28,74.24,74.24,74.24c35.84,0,66.56-25.6,74.24-61.44l110.08-17.92c12.8,23.04,38.4,40.96,66.56,40.96
			c40.96,0,74.24-33.28,74.24-74.24c0-23.04-10.24-46.08-28.16-58.88l23.04-66.56c46.08,7.68,102.4-35.84,102.4-97.28
			C505.6,117.76,462.08,74.24,405.76,74.24z M106.24,148.48c-28.16,0-51.2-23.04-51.2-51.2c0-28.16,23.04-51.2,51.2-51.2
			c28.16,0,51.2,23.04,51.2,51.2C154.88,128,131.84,148.48,106.24,148.48z M80.64,460.8c-12.8,0-25.6-10.24-25.6-25.6
			c0-12.8,10.24-25.6,25.6-25.6c12.8,0,25.6,10.24,25.6,25.6S93.44,460.8,80.64,460.8z M328.96,424.96c-12.8,0-25.6-10.24-25.6-25.6
			c0-12.8,10.24-25.6,25.6-25.6c12.8,0,25.6,10.24,25.6,25.6C354.56,412.16,344.32,424.96,328.96,424.96z M405.76,225.28
			c-28.16,0-51.2-23.04-51.2-51.2c0-28.16,23.04-51.2,51.2-51.2c28.16,0,51.2,23.04,51.2,51.2
			C456.96,202.24,433.92,225.28,405.76,225.28z"/>
	</g>
</g>
<g>
</g>
<g>
</g>
<g>
</g>
<g>
</g>
<g>
</g>
<g>
</g>
<g>
</g>
<g>
</g>
<g>
</g>
<g>
</g>
<g>
</g>
<g>
</g>
<g>
</g>
<g>
</g>
<g>
</g>
</svg>
