<?xml version="1.0" encoding="iso-8859-1"?>
<!-- Generator: Adobe Illustrator 19.0.0, SVG Export Plug-In . SVG Version: 6.00 Build 0)  -->
<svg version="1.1" id="Capa_1" xmlns="http://www.w3.org/2000/svg" xmlns:xlink="http://www.w3.org/1999/xlink" x="0px" y="0px"
	 viewBox="0 0 512 512" style="enable-background:new 0 0 512 512;" xml:space="preserve">
<g>
	<g>
		<path d="M486.4,0H25.6C10.24,0,0,10.24,0,25.6v460.8C0,501.76,10.24,512,25.6,512h460.8c15.36,0,25.6-10.24,25.6-25.6V25.6
			C512,10.24,501.76,0,486.4,0z M153.6,460.8H51.2V358.4h102.4V460.8z M153.6,307.2H51.2V204.8h102.4V307.2z M307.2,460.8H204.8
			V358.4h102.4V460.8z M307.2,307.2H204.8V204.8h102.4V307.2z M460.8,460.8H358.4v-256h102.4V460.8z M460.8,153.6H51.2V51.2h409.6
			V153.6z"/>
	</g>
</g>
<g>
</g>
<g>
</g>
<g>
</g>
<g>
</g>
<g>
</g>
<g>
</g>
<g>
</g>
<g>
</g>
<g>
</g>
<g>
</g>
<g>
</g>
<g>
</g>
<g>
</g>
<g>
</g>
<g>
</g>
</svg>
